<?xml version="1.0" standalone="no"?>
<!DOCTYPE svg PUBLIC "-//W3C//DTD SVG 20010904//EN"
 "http://www.w3.org/TR/2001/REC-SVG-20010904/DTD/svg10.dtd">
<svg version="1.0" xmlns="http://www.w3.org/2000/svg"
 width="271.000000pt" height="271.000000pt" viewBox="0 0 271.000000 271.000000"
 preserveAspectRatio="xMidYMid meet">

<g transform="translate(0.000000,271.000000) scale(0.100000,-0.100000)"
fill="#ffffff" stroke="none">
<path d="M0 1355 l0 -1355 1355 0 1355 0 0 1355 0 1355 -1355 0 -1355 0 0
-1355z m1385 1068 c4 -17 13 -23 34 -23 48 0 192 -29 256 -52 98 -35 225 -104
300 -163 39 -31 70 -61 70 -67 0 -7 -22 -27 -48 -46 l-48 -35 -27 25 c-115
104 -292 183 -457 203 l-58 8 6 -39 c21 -145 49 -320 54 -327 2 -4 49 56 104
134 54 78 102 145 105 148 9 8 -1 -68 -33 -246 l-27 -153 -56 -39 -57 -40 -48
14 c-26 8 -61 15 -77 15 l-28 0 1 438 c1 409 2 432 15 352 8 -47 16 -95 19
-107z m-82 -30 c2 -5 -1 -33 -7 -63 l-11 -55 -73 -12 c-104 -17 -166 -37 -257
-81 -77 -38 -205 -126 -205 -141 0 -4 37 -34 83 -67 45 -34 115 -85 155 -114
40 -29 75 -51 77 -48 3 3 -8 85 -25 183 -17 98 -29 182 -28 187 5 13 212 -283
212 -302 0 -8 -3 -48 -8 -89 -8 -67 -11 -75 -39 -90 -16 -9 -43 -27 -59 -40
l-30 -24 -261 263 c-167 167 -248 255 -223 241 l38 -22 40 37 c83 74 225 155
339 193 118 39 272 62 282 44z m806 -272 l-22 -30 29 -36 c139 -174 217 -349
244 -549 5 -44 8 -81 6 -83 -2 -2 -30 -1 -62 4 l-59 8 -8 45 c-31 170 -74 284
-148 394 -80 120 -74 119 -149 18 -112 -152 -171 -235 -168 -238 2 -1 26 2 53
7 28 5 100 18 160 29 61 11 126 22 145 26 31 6 33 5 20 -8 -8 -9 -78 -60 -155
-113 l-140 -98 -85 12 c-48 7 -89 18 -95 26 -5 7 -18 26 -27 42 -10 15 -23 36
-30 45 -11 16 16 47 247 278 142 142 261 258 263 255 2 -2 -6 -17 -19 -34z
m-1460 -83 c17 -23 31 -46 31 -50 0 -5 -18 -32 -39 -61 -53 -70 -97 -147 -127
-220 -28 -70 -67 -248 -56 -259 8 -8 343 41 355 52 5 4 -55 52 -132 106 -78
54 -141 102 -141 107 0 5 13 6 29 2 16 -3 105 -19 196 -35 127 -22 170 -33
180 -47 7 -10 27 -36 43 -58 28 -37 29 -42 18 -70 -7 -17 -16 -52 -20 -78 l-7
-47 -437 1 c-240 1 -419 5 -397 9 22 4 73 13 113 20 l72 12 0 46 c1 92 46 256
102 367 52 104 155 245 179 245 4 0 21 -19 38 -42z m711 -444 c0 -56 -3 -75
-12 -72 -14 5 -24 118 -14 145 13 33 26 -4 26 -73z m-86 -10 c25 -62 28 -90 7
-68 -14 14 -60 132 -54 138 11 11 21 -5 47 -70z m196 62 c0 -17 -62 -136 -71
-136 -6 0 -9 6 -6 13 38 95 54 127 65 127 6 0 12 -2 12 -4z m-266 -105 c69
-70 54 -89 -17 -22 -31 30 -57 58 -57 62 0 21 29 5 74 -40z m356 42 c0 -13
-94 -103 -107 -103 -20 0 -17 5 40 59 50 48 67 60 67 44z m-403 -115 c37 -17
61 -33 53 -35 -19 -4 -133 42 -138 56 -6 17 12 13 85 -21z m461 21 c-5 -15
-118 -61 -138 -56 -8 2 14 18 50 35 70 33 94 39 88 21z m-408 -109 c0 -6 -33
-10 -80 -10 -47 0 -80 4 -80 10 0 6 33 10 80 10 47 0 80 -4 80 -10z m430 0 c0
-6 -32 -10 -75 -10 -43 0 -75 4 -75 10 0 6 32 10 75 10 43 0 75 -4 75 -10z
m928 -6 c-3 -3 -48 -12 -99 -20 -52 -9 -95 -16 -96 -17 -1 -2 -9 -49 -17 -105
-28 -185 -95 -341 -208 -486 l-62 -79 -33 39 c-46 54 -49 71 -21 102 68 76
122 172 162 292 28 85 49 201 38 211 -4 3 -47 0 -97 -8 -49 -8 -127 -20 -173
-26 -45 -7 -83 -16 -84 -22 -1 -5 60 -52 135 -105 75 -53 140 -99 144 -104 9
-10 -24 -5 -241 35 -88 16 -162 32 -165 37 -3 4 -21 30 -40 56 -31 45 -33 52
-23 80 7 18 15 53 18 79 l7 47 430 0 c237 0 428 -3 425 -6z m-2136 -50 c11 -3
20 -19 23 -42 25 -160 82 -309 159 -416 73 -102 59 -107 190 71 64 86 114 158
112 161 -5 5 -99 -10 -254 -39 -57 -10 -110 -19 -119 -19 -18 0 25 34 185 144
l113 78 85 -13 c76 -12 87 -16 100 -40 7 -15 24 -40 38 -56 l24 -29 -256 -257
c-292 -292 -278 -279 -263 -250 6 12 16 25 21 28 18 11 11 41 -16 66 -110 101
-227 371 -241 553 l-6 78 44 -7 c24 -3 52 -9 61 -11z m788 -2 c0 -8 -122 -62
-140 -62 -28 0 -3 21 53 43 66 28 87 32 87 19z m353 -24 c42 -18 62 -38 38
-38 -20 0 -141 57 -134 63 8 8 30 2 96 -25z m-323 -26 c0 -14 -109 -116 -117
-109 -4 4 18 32 47 62 52 52 70 65 70 47z m262 -39 c43 -43 60 -73 41 -73 -10
0 -113 102 -113 112 0 20 28 4 72 -39z m-217 -5 c-16 -53 -55 -129 -64 -124
-11 7 47 146 61 146 5 0 6 -10 3 -22z m140 -34 c29 -66 33 -83 20 -82 -5 1
-22 30 -37 66 -32 73 -32 72 -18 72 6 0 21 -25 35 -56z m-75 -35 c0 -60 -3
-80 -12 -77 -8 3 -14 28 -16 68 -3 67 1 90 18 90 6 0 10 -32 10 -81z m510
-305 c146 -146 255 -261 243 -255 -12 6 -25 16 -28 21 -12 20 -37 9 -120 -55
-144 -110 -339 -188 -504 -202 l-74 -6 8 59 c8 63 15 74 55 74 44 1 152 29
234 62 125 50 274 155 250 177 -30 27 -306 223 -309 219 -2 -2 9 -80 26 -174
16 -93 28 -178 27 -188 -2 -13 -37 30 -107 129 l-104 148 7 70 c9 100 14 114
45 127 15 6 38 22 52 35 13 13 26 24 29 24 3 1 124 -119 270 -265z m-557 161
l37 -6 0 -424 c0 -234 -4 -425 -8 -425 -5 0 -14 41 -21 92 -6 50 -14 94 -16
98 -2 4 -36 10 -74 13 -104 9 -212 42 -336 102 -94 46 -244 149 -253 174 -3 9
82 71 98 71 6 0 30 -15 53 -34 96 -78 228 -141 355 -170 96 -22 132 -21 132 2
0 30 -49 334 -55 340 -7 7 1 17 -114 -147 -56 -79 -101 -135 -101 -126 0 42
63 381 74 394 6 7 32 28 59 46 47 32 50 33 90 20 23 -7 59 -16 80 -20z"/>
</g>
</svg>
